<svg id="圖層_2" data-name="圖層 2" xmlns="http://www.w3.org/2000/svg" viewBox="0 0 423.46 373.25"><defs><style>.cls-1{fill:none;}.cls-1,.cls-2{stroke:#000;stroke-miterlimit:10;}.cls-2{fill:#fff;}</style></defs><path class="cls-1" d="M415.91,200.74c-1.44,2.63-.41,6.76-.41,11.35,4.43,9.31,8.55,18.79,12.41,28.34,8.08,20,9.29,42,18.75,61.41a98.5,98.5,0,0,0,14.47,21.63c5.41,6.19,14.45,9.94,17.33,18.13,3.41,9.71,4.41,15.58,15,20.9,5.85,2.92,13.49,2.8,19.47,6.32s9.36,9.82,13.37,15.18c0,0,5.16,10.5,17.16,27.5,0,0,27,34-25,45-8.37,1.77-23.47-5.94-30.58-9.28A91.36,91.36,0,0,1,463,430.3a75.5,75.5,0,0,1-10.74-13.05c-6.34-9.78-9-12.72-20.15-16.56-5.11-1.75-20.77-8.07-24.59-1.19,0,0-3,9,30,23,0,0,11,4,14,15,0,0,14,29,40,39l19,7.78,13,5.33c6.69,2.74,6.59,4.92,5.51,11.82-1,6.56-2.26,13.09-3.39,19.64q-2.52,14.65-5.05,29.32c.21-1.22,52.11.11,55.52.11h76.31c15.62,0,33.79,2.62,49.15,0,5.7-1,4.77-2.19,5.51-7.77.53-4.05,1.14-8.1,1.71-12.15.41-2.9,5.12-41.11,5.78-41.08,0,0,52,2,68-27,3.42-6.2,10.21-12.73,16.14-17a41.51,41.51,0,0,1,11.14-5.76c4-1.31,9.36-.38,13-1.8,2.53-1,7.29-5.75,7.12-9.12-.3-6.1-8-4.26-12.38-3.35,0,0-13-2-48,28,0,0-31,14-53-1,.76.52,7.63-8,8.12-8.69,12.89-17.33.74-42.89,13.48-59.81,5.69-7.56,2.82-17.75,4.41-26.1.92-4.82,5.46-6.64,9.77-9.87,10.36-7.77,16.76-9.58,14.2-22.65-2.72-13.85,16-21,22.87-30,5.41-7.1,9.12-16.41,13-24.39,10.24-20.81,21.4-43.63,24.21-66.93.69-5.8,1.2-13-2-18.21-6.15-10.2-13.75-6.6-20.46-.31a188.67,188.67,0,0,1-18.58,14.89,295.36,295.36,0,0,1-72.1,38.11s-27-40-87-29c0,0-71-12-97,30,0,0,1,14-78-31-4.59-2.61-8.61-5.84-13.55-7.94a37.76,37.76,0,0,0-16.45-2.68C418.38,198.2,416.73,199.22,415.91,200.74Z" transform="translate(-406.93 -178.91)"/><path class="cls-1" d="M493.69,341.85a40,40,0,0,0,12.92,9.4c1.48.69,3.52,1.22,4.57,2.56,2.41,3.12.4,9.46.18,12.75" transform="translate(-406.93 -178.91)"/><path class="cls-1" d="M444.27,217.34a416.06,416.06,0,0,0,46.06,24,27.94,27.94,0,0,1,6.8,3.79,39.61,39.61,0,0,1,4.07,4.41,45,45,0,0,0,8.83,7.8c-.89,9.88,3.8,19.62,5.37,29.42,4,24.82-7.61,50.38-2.57,75" transform="translate(-406.93 -178.91)"/><path class="cls-1" d="M557.69,275.62a6.76,6.76,0,0,1-6.78,5" transform="translate(-406.93 -178.91)"/><path class="cls-1" d="M560.21,283.54c-8.22-3.61-17.72,0-25.6,4.34-6.16,3.37-12.58,7.81-14.29,14.61a28.07,28.07,0,0,0-.45,7.77c.4,11.51.93,23.47,6.35,33.63,7,13.1,20.89,20.92,34.62,26.57" transform="translate(-406.93 -178.91)"/><path class="cls-1" d="M505.73,190.91h.56" transform="translate(-406.93 -178.91)"/><path class="cls-1" d="M541.28,295.52a15.36,15.36,0,0,0-6.72.83c-2.36,1.06-4,3.21-5.56,5.28-4.64,6.21-9.47,12.89-10,20.62-.33,5,1.18,9.92,3.13,14.52,2.77,6.51,6.83,13,13.26,15.94,5.42,2.49,11.85,2.09,17.43,0s10.42-5.81,14.86-9.8,8.9-8.83,10.12-14.79c1.29-6.31-1.31-12.92-5.4-17.91-3.36-4.11-7.68-6.84-11.68-10.23-3.05-2.58-5-4-9.18-4.17C548.12,295.67,544.7,295.6,541.28,295.52Z" transform="translate(-406.93 -178.91)"/><path d="M521.77,330.7c.1,2.66.69,5.73,3.05,7,1.93,1,4.43.31,6.06-1.15,2.94-2.64,4.35-7.49,5.2-11.22s1-7.76-1-11.14c-1.3-2.19-3.61-4.64-6.29-4.92-3.44-.35-4.29,3.67-5,6.22A47.1,47.1,0,0,0,521.77,330.7Z" transform="translate(-406.93 -178.91)"/><path class="cls-2" d="M528.24,320.13a5.25,5.25,0,0,0-1.67,2.35,1.48,1.48,0,1,0,2.23-1.57" transform="translate(-406.93 -178.91)"/><path class="cls-1" d="M632.63,238.92c.32,4.43,2.15,8.59,3.51,12.82a62.65,62.65,0,0,1,2.68,25.55" transform="translate(-406.93 -178.91)"/><path class="cls-1" d="M529.76,251.42a18.47,18.47,0,0,1-.63,13" transform="translate(-406.93 -178.91)"/><path class="cls-1" d="M815.81,200.51c-.26-3.82-5.13-5.6-8.9-4.93-8.95,1.59-14.19,10.57-20.54,17.07-12.06,12.33-30,16.61-44.3,26.32-8.39,5.71-16.21,13.6-26.32,14.43" transform="translate(-406.93 -178.91)"/><path class="cls-1" d="M712.67,237.81l6.83,23.42c1.63,5.61,3.29,11.27,6.06,16.42,6.1,11.32,17.68,20.64,18,33.5-1.28-5.21-11.74-12.1-16.93-13.47a56.51,56.51,0,0,0-14.09-2.4c-4.77,0-9.7,1.15-13.42,4.14-6.33,5.09-7.83,14-8.23,22.14a3,3,0,0,0,2,3.58c10.37,5.66,20.85,11.37,32.21,14.58a10,10,0,0,0,4.81.49c2.63-.59,4.38-3,5.68-5.37a47.16,47.16,0,0,0,5.79-22.79c0-3-.76-6.59-3.57-7.58" transform="translate(-406.93 -178.91)"/><path class="cls-1" d="M614.73,347.51c-2.19.23-2.13,3.48-3.39,5.28a9.9,9.9,0,0,1-1.79,1.69c-3.62,3.15-4.84,8.37-8.35,11.64-1.49,1.39-3.34,2.37-4.71,3.88-3.62,4-2.83,10.17-1.8,15.46.56,2.91,2,6.37,1.51,9.44a14.65,14.65,0,0,1-1.05,3.07,14.78,14.78,0,0,0-.21,10.36" transform="translate(-406.93 -178.91)"/><path class="cls-1" d="M576.55,381.67A49.69,49.69,0,0,1,580.07,392" transform="translate(-406.93 -178.91)"/><path class="cls-1" d="M557.13,372.16a156.58,156.58,0,0,0,.58,22.61" transform="translate(-406.93 -178.91)"/><path class="cls-1" d="M537.17,359.23l1.88,9" transform="translate(-406.93 -178.91)"/><path class="cls-1" d="M628.91,417.8a24.75,24.75,0,0,0,28.76-2.09" transform="translate(-406.93 -178.91)"/><path class="cls-1" d="M633.69,428.18c1.56,2.58,4.73,3.85,7.75,3.92s6-.86,8.85-1.78" transform="translate(-406.93 -178.91)"/><path class="cls-1" d="M620.32,450.36a90.15,90.15,0,0,0,46.4-5.2" transform="translate(-406.93 -178.91)"/><path class="cls-1" d="M717,452.59c-7.65,1.86-13.36,9.37-21.22,9.84" transform="translate(-406.93 -178.91)"/><path class="cls-1" d="M732.31,394.42a161.88,161.88,0,0,1-17.51,10.22" transform="translate(-406.93 -178.91)"/><path class="cls-1" d="M770.8,295.49c-3.19,8.41-8.62,15.76-14,23a36.92,36.92,0,0,1-7,7.74c-2.77,2.11-6.33,3.43-9.74,2.75,6.19,6.45,5.68,15.19.62,22.57-2.61,3.81-6.55,6.67-8.63,10.79-3.14,6.23-1.7,14.61-6.6,19.57" transform="translate(-406.93 -178.91)"/><path class="cls-1" d="M677.54,333.43c6.06,1.72,12.57,4.06,15.83,9.44,2.7,4.45,2.56,10.06,1.65,15.18" transform="translate(-406.93 -178.91)"/><path class="cls-1" d="M684.45,352.4l11.06,6.8a9.54,9.54,0,0,1,5.48,7.65c1.23,4.9,2.43,10.2.52,14.88-.5,1.21-1.17,2-1.24,3.23-.06,1,0,2.05.05,3.06.07,2.27.24,4.53.53,6.79" transform="translate(-406.93 -178.91)"/><path class="cls-1" d="M708.93,349c-.21,1.23,1,2.22,2.05,2.86a45,45,0,0,0,11.49,4.9" transform="translate(-406.93 -178.91)"/><path class="cls-1" d="M714.37,374.1A10.71,10.71,0,0,1,712.93,388" transform="translate(-406.93 -178.91)"/><path class="cls-1" d="M699.23,386.06a69.28,69.28,0,0,1-19.54,15.55" transform="translate(-406.93 -178.91)"/><path d="M655.43,360.2c1.82.51,3.84.93,5.45,0s2.32-3.36,3.87-4.7c.52-.45,1.19-.85,1.34-1.51a2.4,2.4,0,0,0-.73-1.93l-4.09-5.32a4.82,4.82,0,0,0,5.13,1.69c5.8-1.75,3.59-9.25-.7-11.24-2.42-1.12-5.41-1-8-1.42-2.16-.38-4.28-.9-6.42-1.39-3.27-.74-6.67-1.41-9.91-.17-4.28,1.63-8.23,5.39-8.13,10.13,0,1.72.34,2.67,2.12,3.07s3.86.54,5.75.8c1.68.22,2.43.56,1.55,2.21-.55,1-1.54,1.79-1.78,3-.84,4.24,8.94,4.69,12.08,6.69a7,7,0,0,1,3,3.89,27.27,27.27,0,0,1,.8,7.32l.42,11.08" transform="translate(-406.93 -178.91)"/><path d="M663.12,379.6c-4.51.74-9.1,1.77-12.9,4.31-6.37,4.26-9.41,11.92-12.09,19.11-.51,1.37-1,2.9-.5,4.26a4.15,4.15,0,0,0,4,2.31,12.08,12.08,0,0,0,4.68-1.37l15.54-6.93a23.23,23.23,0,0,0,4.73-2.56c2.52-1.89,4.17-4.69,5.75-7.41,1.82-3.12,4.35-7.95,1.79-11.42-.88-1.2-2.22-1.37-3.62-1.29A68.25,68.25,0,0,0,663.12,379.6Z" transform="translate(-406.93 -178.91)"/><path class="cls-1" d="M678.49,375.48c3.37-1.35,7.53,2.32,6.61,5.83" transform="translate(-406.93 -178.91)"/><path class="cls-1" d="M596.4,395.49a44.3,44.3,0,0,0,14.38,13.93" transform="translate(-406.93 -178.91)"/><path d="M733.52,329.86c.35.45,2.43-1.18,2.68-1.43a9.69,9.69,0,0,0,1.88-2.77,61.26,61.26,0,0,0,2.92-8.15c1.24-3.77,3.77-8.16.6-11.57-1.9-2.06-5.21-3.56-8.05-3.07-4.21.72-3.77,6.47-4,9.71C729.16,318.51,729.75,325,733.52,329.86Z" transform="translate(-406.93 -178.91)"/><path class="cls-1" d="M543.43,296.6c-2.27-.05-4.64-.09-6.72.84-2.36,1.06-4,3.21-5.56,5.28-4.64,6.2-9.47,12.88-10,20.62-.34,5,1.17,9.92,3.12,14.51,2.77,6.51,6.83,13,13.26,15.94,5.42,2.5,11.85,2.09,17.43,0s10.42-5.82,14.86-9.81,8.91-8.83,10.12-14.78c1.29-6.32-1.31-12.93-5.39-17.92-3.37-4.1-7.69-6.83-11.69-10.22-3-2.59-5-4-9.17-4.17C550.28,296.75,546.85,296.69,543.43,296.6Z" transform="translate(-406.93 -178.91)"/><path class="cls-2" d="M733,313.12a5.33,5.33,0,0,0-1.67,2.35,1.47,1.47,0,1,0,2.23-1.56" transform="translate(-406.93 -178.91)"/></svg>